<svg xmlns="http://www.w3.org/2000/svg" viewBox="0 0 240 190" role="img" aria-label="爱心和云朵">
  <defs>
    <linearGradient id="heart" x1="0" y1="0" x2="1" y2="1">
      <stop offset="0" stop-color="#ff9fc1"/>
      <stop offset="1" stop-color="#e95c90"/>
    </linearGradient>
    <filter id="soft" x="-40%" y="-40%" width="180%" height="180%">
      <feDropShadow dx="0" dy="8" stdDeviation="8" flood-color="#d95a8b" flood-opacity=".16"/>
    </filter>
  </defs>
  <path d="M35 143c-13 0-23-10-23-22 0-11 8-20 19-22 3-19 19-33 39-33 8 0 16 3 22 7 8-15 24-25 42-25 27 0 49 22 49 49v2c15 1 27 13 27 28 0 16-13 29-29 29H35z" fill="#fff" filter="url(#soft)"/>
  <path d="M120 131C82 105 67 88 67 65c0-18 13-31 30-31 11 0 20 6 23 14 4-8 13-14 24-14 17 0 30 13 30 31 0 23-16 40-54 66z" fill="url(#heart)" filter="url(#soft)"/>
  <circle cx="92" cy="82" r="3" fill="#74384f"/>
  <circle cx="147" cy="82" r="3" fill="#74384f"/>
  <path d="M111 94c5 5 13 5 18 0" fill="none" stroke="#74384f" stroke-width="3" stroke-linecap="round"/>
  <circle cx="82" cy="91" r="7" fill="#ffcade" opacity=".7"/>
  <circle cx="157" cy="91" r="7" fill="#ffcade" opacity=".7"/>
  <path d="M35 45l4 8 9 2-7 6 2 9-8-5-8 5 2-9-7-6 9-2zM205 57l3 6 7 1-5 5 1 7-6-4-6 4 2-7-5-5 6-1z" fill="#f5bd58"/>
</svg>
